<mxfile host="app.diagrams.net" agent="Mozilla/5.0 (Windows NT 10.0; Win64; x64) AppleWebKit/537.36 (KHTML, like Gecko) Chrome/131.0.0.0 Safari/537.36 Edg/131.0.0.0" version="24.8.6">
  <diagram name="Page-1" id="o9Wp1EaGl3yU0gQJHtld">
    <mxGraphModel dx="925" dy="495" grid="1" gridSize="10" guides="1" tooltips="1" connect="1" arrows="1" fold="1" page="1" pageScale="1" pageWidth="850" pageHeight="1100" math="0" shadow="0">
      <root>
        <mxCell id="0" />
        <mxCell id="1" parent="0" />
        <mxCell id="_oZBkbtQEpN_fBHLFjaB-13" value="" style="group" vertex="1" connectable="0" parent="1">
          <mxGeometry x="390" y="20" width="100" height="430" as="geometry" />
        </mxCell>
        <mxCell id="_oZBkbtQEpN_fBHLFjaB-10" style="edgeStyle=orthogonalEdgeStyle;rounded=0;orthogonalLoop=1;jettySize=auto;html=1;exitX=0.5;exitY=1;exitDx=0;exitDy=0;exitPerimeter=0;entryX=0.5;entryY=0;entryDx=0;entryDy=0;" edge="1" parent="_oZBkbtQEpN_fBHLFjaB-13" source="_oZBkbtQEpN_fBHLFjaB-5" target="_oZBkbtQEpN_fBHLFjaB-6">
          <mxGeometry relative="1" as="geometry" />
        </mxCell>
        <mxCell id="_oZBkbtQEpN_fBHLFjaB-5" value="DATA&amp;nbsp;&lt;div&gt;COLLECTION&lt;/div&gt;" style="strokeWidth=2;html=1;shape=mxgraph.flowchart.start_1;whiteSpace=wrap;" vertex="1" parent="_oZBkbtQEpN_fBHLFjaB-13">
          <mxGeometry width="100" height="60" as="geometry" />
        </mxCell>
        <mxCell id="_oZBkbtQEpN_fBHLFjaB-6" value="BAYESIAN&amp;nbsp;&lt;div&gt;NETWORK&lt;/div&gt;&lt;div&gt;PROCESSING&lt;/div&gt;" style="rounded=1;whiteSpace=wrap;html=1;absoluteArcSize=1;arcSize=14;strokeWidth=2;" vertex="1" parent="_oZBkbtQEpN_fBHLFjaB-13">
          <mxGeometry y="90" width="100" height="100" as="geometry" />
        </mxCell>
        <mxCell id="_oZBkbtQEpN_fBHLFjaB-7" value="GENERATE&lt;div&gt;RESULTS&lt;/div&gt;" style="rounded=1;whiteSpace=wrap;html=1;absoluteArcSize=1;arcSize=14;strokeWidth=2;" vertex="1" parent="_oZBkbtQEpN_fBHLFjaB-13">
          <mxGeometry y="230" width="100" height="100" as="geometry" />
        </mxCell>
        <mxCell id="_oZBkbtQEpN_fBHLFjaB-8" value="PRESENT&lt;div&gt;RESULTS&lt;/div&gt;" style="strokeWidth=2;html=1;shape=mxgraph.flowchart.terminator;whiteSpace=wrap;" vertex="1" parent="_oZBkbtQEpN_fBHLFjaB-13">
          <mxGeometry y="370" width="100" height="60" as="geometry" />
        </mxCell>
        <mxCell id="_oZBkbtQEpN_fBHLFjaB-11" value="" style="edgeStyle=none;orthogonalLoop=1;jettySize=auto;html=1;rounded=0;" edge="1" parent="_oZBkbtQEpN_fBHLFjaB-13">
          <mxGeometry width="100" relative="1" as="geometry">
            <mxPoint x="49.5" y="190" as="sourcePoint" />
            <mxPoint x="49.5" y="230" as="targetPoint" />
            <Array as="points" />
          </mxGeometry>
        </mxCell>
        <mxCell id="_oZBkbtQEpN_fBHLFjaB-12" value="" style="edgeStyle=none;orthogonalLoop=1;jettySize=auto;html=1;rounded=0;" edge="1" parent="_oZBkbtQEpN_fBHLFjaB-13">
          <mxGeometry width="100" relative="1" as="geometry">
            <mxPoint x="49.5" y="330" as="sourcePoint" />
            <mxPoint x="49.5" y="370" as="targetPoint" />
            <Array as="points" />
          </mxGeometry>
        </mxCell>
      </root>
    </mxGraphModel>
  </diagram>
</mxfile>
